# xmcd
#
# Track frame offsets: 
#        150
#        17999
#        35596
#        64241
#        91304
#        121715
#
# Disc length: 1879 seconds
#
# Revision: 0
# Processed by: cddbd v1.5.2PL0 Copyright (c) Steve Scherf et al.
# Submitted via: ExactAudioCopy v1.0b4
#
DISCID=48075506
DTITLE=Paradigm Feat. Stefanie Bennett - Back 4 My Love
DYEAR=1900
DGENRE=
TTITLE0=Back 4 My Love (Robert and Monk Original Radio)
TTITLE1=Back 4 My Love (B.K.S.S. Radio Mix)
TTITLE2=Back 4 My Love (Robert and Monk Original Extended Mix)
TTITLE3=Back 4 My Love (B.K.S.S. Extended Mix)
TTITLE4=Back 4 My Love (Calle's ''No Escape'' Dub)
TTITLE5=Back 4 My Love (Robert and Monk Instrumental)
EXTD=
EXTT0=
EXTT1=
EXTT2=
EXTT3=
EXTT4=
EXTT5=
PLAYORDER=
